<svg xmlns="http://www.w3.org/2000/svg" width="26.988" height="28.026" viewBox="0 0 26.988 28.026">
  <g id="noun-sound-wave-3454260" transform="translate(-204.402 -128.802)">
    <path id="Path_8" data-name="Path 8" d="M209.592,151.183a1.021,1.021,0,0,1-1.038-1V135.45a1.039,1.039,0,0,1,2.076,0v14.73A1.021,1.021,0,0,1,209.592,151.183Zm5.19-3.487v-9.762a1.039,1.039,0,0,0-2.076,0V147.7a1.039,1.039,0,0,0,2.076,0Zm4.152,8.13V129.8a1.039,1.039,0,0,0-2.076,0v26.022a1.039,1.039,0,0,0,2.076,0Zm12.456-12.441v-1.139a1.039,1.039,0,0,0-2.076,0v1.139a1.039,1.039,0,0,0,2.076,0Zm-4.152,1.244V141a1.039,1.039,0,0,0-2.076,0v3.627a1.039,1.039,0,0,0,2.076,0Zm-20.76.6V140.4a1.039,1.039,0,0,0-2.076,0v4.821a1.039,1.039,0,0,0,2.076,0Zm16.608,4.1V136.306a1.039,1.039,0,0,0-2.076,0v13.018a1.039,1.039,0,0,0,2.076,0Z" fill="#fff"/>
  </g>
</svg>
