<svg xmlns="http://www.w3.org/2000/svg" width="79" height="24.697" viewBox="0 0 79 24.697">
  <g id="Group_47" data-name="Group 47" transform="translate(-1671 -76)">
    <text id="Sound_OFF" data-name="Sound OFF" transform="translate(1671 97.697)" fill="#fff" font-size="13" font-family="ErotiqueTrial-Regular, Erotique Trial"><tspan x="0" y="0">SOUND OFF</tspan></text>
    <g id="noun-wave-1001052" transform="translate(891.029 -722.203)">
      <path id="Path_104" data-name="Path 104" d="M256.119,206.2a8.41,8.41,0,0,1-4.7-1.287,12.891,12.891,0,0,0-12.838,0,9.172,9.172,0,0,1-9.387,0,12.872,12.872,0,0,0-12.826,0,9.172,9.172,0,0,1-9.387,0,12.872,12.872,0,0,0-12.826,0,8.4,8.4,0,0,1-4.688,1.287,1.234,1.234,0,1,0,0,2.4,11.907,11.907,0,0,0,6.419-1.717,9.174,9.174,0,0,1,9.388,0,12.877,12.877,0,0,0,12.826,0,9.172,9.172,0,0,1,9.387,0,12.874,12.874,0,0,0,12.838,0,9.186,9.186,0,0,1,9.4,0,11.927,11.927,0,0,0,6.42,1.717,1.234,1.234,0,1,0,0-2.4Z" transform="translate(592.666 595)" fill="#fff"/>
    </g>
  </g>
</svg>
