<svg xmlns="http://www.w3.org/2000/svg" width="73" height="47.697" viewBox="0 0 73 47.697">
  <g id="Group_46" data-name="Group 46" transform="translate(-1585 -55)">
    <path id="Path_5" data-name="Path 5" d="M124.505,207.518a3.011,3.011,0,0,1-2.058-.837,4.425,4.425,0,0,1-1.233-2.315l-2.862-13.015c-.184-.84-.59-1.216-.892-1.213s-.733.411-.9,1.292l-1.154,6.045a4.63,4.63,0,0,1-1.009,2.181,3.149,3.149,0,0,1-1.92,1.089,2.845,2.845,0,0,1-1.886-.383,3.7,3.7,0,0,1-1.374-1.515c-1.232-2.364-3.143-3.775-5.113-3.775h-4.87a1.234,1.234,0,1,1,0-2.468H104.1a7.206,7.206,0,0,1,4.2,1.4,10.469,10.469,0,0,1,3.107,3.7c.212.408.479.63.712.6.305-.044.706-.467.862-1.29l1.154-6.045a4.538,4.538,0,0,1,1.146-2.342,3.062,3.062,0,0,1,2.146-.957,3.03,3.03,0,0,1,2.145.88,4.447,4.447,0,0,1,1.192,2.271l2.862,13.014c.188.855.6,1.228.9,1.213.376-.019.815-.545.927-1.512l2.073-17.955a4.689,4.689,0,0,1,1.1-2.641,3.01,3.01,0,0,1,4.581,0,4.689,4.689,0,0,1,1.1,2.641l2.073,17.955c.112.968.551,1.493.927,1.512.3.015.712-.358.9-1.213l2.862-13.014a4.443,4.443,0,0,1,1.192-2.271,3.027,3.027,0,0,1,2.145-.88,3.065,3.065,0,0,1,2.146.957,4.53,4.53,0,0,1,1.146,2.342l1.154,6.045c.157.822.557,1.246.862,1.29.233.034.5-.188.712-.6a10.48,10.48,0,0,1,3.107-3.7,7.21,7.21,0,0,1,4.2-1.4H162.6a1.235,1.235,0,1,1,0,2.47h-4.871c-1.97,0-3.882,1.411-5.113,3.775a3.7,3.7,0,0,1-1.374,1.515,2.846,2.846,0,0,1-1.886.383,3.149,3.149,0,0,1-1.92-1.089,4.621,4.621,0,0,1-1.009-2.181l-1.154-6.045c-.168-.882-.585-1.288-.9-1.292h-.005c-.3,0-.7.378-.887,1.213l-2.862,13.014a4.423,4.423,0,0,1-1.233,2.315,3,3,0,0,1-2.2.833c-1.415-.071-2.971-1.242-3.254-3.695l-2.073-17.955c-.115-.992-.559-1.512-.938-1.512s-.824.519-.938,1.512L127.9,203.82c-.283,2.453-1.838,3.623-3.254,3.695-.047,0-.1,0-.145,0Z" transform="translate(1492.002 -126.884)" fill="#fff"/>
    <text id="Sound_ON" data-name="Sound ON" transform="translate(1585 99.697)" fill="#fff" font-size="13" font-family="ErotiqueTrial-Regular, Erotique Trial"><tspan x="0" y="0">SOUND ON</tspan></text>
  </g>
</svg>
