<svg xmlns="http://www.w3.org/2000/svg" width="30.855" height="4.189" viewBox="0 0 30.855 4.189">
  <path id="Path_9" data-name="Path 9" d="M146.511,256.266a2.985,2.985,0,0,1-.479-.039,3.08,3.08,0,0,1-1.434-.7.84.84,0,0,1,1.04-1.319,1.54,1.54,0,0,0,.664.364.994.994,0,0,0,.928-.3c.21-.205.422-.422.625-.633.125-.128.249-.257.375-.384a3.717,3.717,0,0,1,5.351-.031c.176.174.349.352.516.524s.314.324.471.479a1.033,1.033,0,0,0,1.532,0c.171-.169.344-.348.512-.521s.355-.366.54-.548a3.675,3.675,0,0,1,5.2-.01c.253.248.5.5.741.752l.259.267a1.179,1.179,0,0,0,.826.4h0a1.2,1.2,0,0,0,.84-.408c.142-.144.283-.289.424-.434.176-.182.359-.37.542-.554a3.649,3.649,0,0,1,5.2-.014c.184.182.364.367.538.546s.342.353.514.523a1.045,1.045,0,0,0,1.5.039.84.84,0,1,1,1.109,1.262,2.725,2.725,0,0,1-3.8-.107c-.183-.181-.363-.366-.537-.546s-.342-.353-.514-.523a1.963,1.963,0,0,0-2.828.006c-.174.175-.353.359-.525.537q-.216.223-.434.445a2.876,2.876,0,0,1-2.036.908h0a2.854,2.854,0,0,1-2.024-.905l-.265-.273c-.243-.251-.472-.487-.71-.72a1.985,1.985,0,0,0-2.841,0c-.173.171-.347.351-.516.525s-.353.363-.535.544a2.713,2.713,0,0,1-3.9,0c-.169-.167-.335-.338-.5-.5s-.327-.337-.491-.5a2.11,2.11,0,0,0-1.481-.637h-.011a2.106,2.106,0,0,0-1.483.654c-.122.124-.243.248-.365.373-.212.218-.431.444-.656.663a2.65,2.65,0,0,1-1.894.792Z" transform="translate(-144.279 -252.077)" fill="#fff"/>
</svg>
